# xmcd
#
# Track frame offsets:
#	150
#	15547
#	26870
#
# Disc length: 602 seconds
#
# Revision: 2
# Processed by: cddbd v1.5.2PL0 Copyright (c) Steve Scherf et al.
# Submitted via: audiograbber 1.83.01
#
DISCID=1b025803
DTITLE=Pete Townsend - I won't run anymore (single) mini edition
DYEAR=1989
DGENRE=Rock
TTITLE0=I Won't Run Anymore
TTITLE1=A Fool Says
TTITLE2=Dig
EXTD=
EXTT0=
EXTT1=
EXTT2=
PLAYORDER=
